<svg width="24" height="24" viewBox="0 0 24 24" fill="none" xmlns="http://www.w3.org/2000/svg" id="IsolatedLogo" style="cursor: pointer;"><g clip-path="url(#clip0_14114_19885)"><path fill-rule="evenodd" clip-rule="evenodd" d="M2.92866 7.73977L3.21919 7.61532V16.1061C3.21919 17.1434 4.02469 17.8201 5.01825 17.3778L15.7085 12.6183C16.5244 12.2551 17.0704 11.2011 17.0704 10.3314V1.68296L17.47 1.51182C18.122 1.23258 18.6291 1.59221 18.6291 2.38135V12.7024C18.6291 13.4915 18.1147 14.4069 17.47 14.7026L2.92866 21.3709C2.28394 21.6666 1.76953 21.2906 1.76953 20.5014V9.73997C1.76953 8.95079 2.27663 8.019 2.92866 7.73977Z" fill="#02A672"></path><path fill-rule="evenodd" clip-rule="evenodd" d="M17.0717 5.7559L21.0754 4.04111C21.7275 3.76188 22.2346 4.1215 22.2346 4.91065V15.2317C22.2346 16.0208 21.7202 16.9362 21.0754 17.2319L6.53413 23.9002C5.88936 24.1959 5.375 23.8199 5.375 23.0307V17.2201L15.7098 12.6189C16.5257 12.2557 17.0717 11.2016 17.0717 10.332V5.7559Z" fill="#28C292"></path><path fill-rule="evenodd" clip-rule="evenodd" d="M4.80022 4.39848L15.4905 0.0793709C16.0817 -0.159504 16.5329 0.152168 16.5329 0.861386V10.3313C16.5329 11.0405 16.073 11.8691 15.4905 12.1284L4.80022 16.8879C4.2177 17.1472 3.75781 16.8152 3.75781 16.1059V6.19562C3.75781 5.48635 4.20898 4.63735 4.80022 4.39848Z" fill="#FAE317"></path><path fill-rule="evenodd" clip-rule="evenodd" d="M6.53413 10.2691L16.5336 5.98633V10.332C16.5336 11.0412 16.0737 11.8698 15.4912 12.1292L5.375 16.6331V12.2693C5.375 11.4801 5.88209 10.5483 6.53413 10.2691Z" fill="#52C879"></path><path fill-rule="evenodd" clip-rule="evenodd" d="M5.375 17.2201V16.6331L15.4912 12.1291C16.0737 11.8698 16.5336 11.0412 16.5336 10.332V5.9863L17.0717 5.75586V10.332C17.0717 11.2016 16.5257 12.2556 15.7098 12.6189L5.375 17.2201Z" fill="#28C292" fill-opacity="0.74902"></path><path fill-rule="evenodd" clip-rule="evenodd" d="M6.53413 10.2691L21.0754 4.04111C21.7275 3.76188 22.2346 4.1215 22.2346 4.91065V15.2317C22.2346 16.0208 21.7202 16.9362 21.0754 17.2319L6.53413 23.9002C5.88936 24.1959 5.375 23.8199 5.375 23.0307V12.2693C5.375 11.4801 5.88209 10.5483 6.53413 10.2691Z" fill="#28C292"></path></g><defs><clipPath id="clip0_14114_19885"><rect width="24" height="24" fill="white"></rect></clipPath></defs></svg>